<svg width="340" height="232" viewBox="0 0 340 232" fill="none" xmlns="http://www.w3.org/2000/svg">
<path fill-rule="evenodd" clip-rule="evenodd" d="M295.447 161.292L324.178 209.714H266.717L295.447 161.292ZM242.647 48.728L207.553 83.8216L172.46 48.728C191.841 29.3464 223.265 29.3464 242.647 48.728ZM177.034 210.992V129.702H258.324V210.992H177.034ZM258.324 117.514H200.217C200.217 101.468 213.225 88.4603 229.271 88.4603C245.316 88.4603 258.324 101.468 258.324 117.514ZM133.858 105.507L174.222 63.7087L195.818 84.5635L135.272 147.261L92.0802 105.551L112.262 84.6522L133.858 105.507ZM78.9758 160.987L99.5196 181.531L78.215 202.835L57.6712 182.292L36.3665 203.596L15.8228 183.053L79.7367 119.139L100.281 139.682L78.9758 160.987ZM134.04 210.992C118.173 210.992 105.31 198.129 105.31 182.261C105.31 166.394 118.173 153.531 134.04 153.531C149.908 153.531 162.771 166.394 162.771 182.261C162.771 198.129 149.908 210.992 134.04 210.992ZM134.04 193.56C140.28 193.56 145.339 188.501 145.339 182.261C145.339 176.021 140.28 170.963 134.04 170.963C127.8 170.963 122.742 176.021 122.742 182.261C122.742 188.501 127.8 193.56 134.04 193.56ZM134.04 75.1122C123.171 75.1122 114.359 66.3008 114.359 55.4314C114.359 44.562 123.171 35.7507 134.04 35.7507C144.91 35.7507 153.721 44.562 153.721 55.4314C153.721 66.3008 144.91 75.1122 134.04 75.1122Z" fill="url(#paint0_linear)"/>
<defs>
<linearGradient id="paint0_linear" x1="-44.1425" y1="53.888" x2="2.6721" y2="296.764" gradientUnits="userSpaceOnUse">
<stop stop-color="white"/>
<stop offset="1" stop-color="white" stop-opacity="0.3"/>
</linearGradient>
</defs>
</svg>
